<svg xmlns="http://www.w3.org/2000/svg" width="180" height="270"><path d="M 135 90 C 159.853 90 180 110.147 180 135 C 180 159.853 159.853 180 135 180 C 110.147 180 90 159.853 90 135 C 90 110.147 110.147 90 135 90 Z" fill="rgba(4, 169, 255, 1.00)"></path><path d="M 0 225 C 0 200.147 20.147 180 45 180 L 90 180 L 90 180 L 90 180 L 90 225 C 90 249.853 69.853 270 45 270 L 45 270 C 20.147 270 0 249.853 0 225 Z" fill="rgba(5, 77, 255, 1.00)"></path><path d="M 0 135 C 0 110.147 20.147 90 45 90 L 90 90 L 90 180 L 45 180 C 20.147 180 0 159.853 0 135 Z" fill="rgba(4, 169, 255, 1.00)"></path><path d="M 0 45 C 0 20.147 20.147 0 45 0 L 90 0 L 90 90 L 45 90 C 20.147 90 0 69.853 0 45 Z" fill="rgba(132, 220, 255, 1.00)"></path><path d="M 90 0 L 135 0 C 159.853 0 180 20.147 180 45 L 180 45 C 180 69.853 159.853 90 135 90 L 90 90 Z" fill="rgba(132, 220, 255, 1.00)"></path></svg>